<svg width="477" height="478" xmlns="http://www.w3.org/2000/svg" xmlns:xlink="http://www.w3.org/1999/xlink" overflow="hidden"><defs><clipPath id="clip0"><rect x="686" y="106" width="477" height="478"/></clipPath></defs><g clip-path="url(#clip0)" transform="translate(-686 -106)"><path d="M437.25 233.531C437.25 217.134 423.834 203.719 407.438 203.719L313.031 203.719C305.081 203.719 298.622 197.259 298.125 189.309 298.622 180.366 313.031 162.478 313.031 94.4062 313.031 78.0094 299.616 64.5938 283.219 64.5938 266.822 64.5938 253.406 78.0094 253.406 94.4062 253.406 169.931 165.459 212.662 163.969 213.656L163.969 372.656C199.247 372.656 201.731 412.406 268.312 412.406 290.672 412.406 357.75 412.406 357.75 412.406 374.147 412.406 387.562 398.991 387.562 382.594 387.562 374.644 384.581 367.688 379.613 362.719 380.606 362.719 381.6 362.719 382.594 362.719 398.991 362.719 412.406 349.303 412.406 332.906 412.406 324.956 409.425 317.503 403.959 312.038 417.375 309.056 427.312 297.131 427.312 283.219 427.312 274.772 423.834 266.822 417.872 261.356 429.3 257.381 437.25 246.45 437.25 233.531Z" fill="#80C34F" transform="matrix(1 0 0 1.0021 686 106)"/><path d="M114.281 188.812 39.75 188.812 39.75 397.5 114.281 397.5C125.213 397.5 134.156 388.556 134.156 377.625L134.156 208.688C134.156 197.756 125.213 188.812 114.281 188.812Z" fill="#80C34F" transform="matrix(1 0 0 1.0021 686 106)"/></g></svg>