<svg width="320" height="320" xmlns="http://www.w3.org/2000/svg" xmlns:xlink="http://www.w3.org/1999/xlink" overflow="hidden"><defs><clipPath id="clip0"><rect x="520" y="185" width="320" height="320"/></clipPath></defs><g clip-path="url(#clip0)" transform="translate(-520 -185)"><path d="M713.69 223.24C691.377 205.747 660.048 205.595 637.567 222.87 651.981 227.996 665.144 236.122 676.187 246.71 686.942 236.392 699.709 228.403 713.69 223.24Z" fill="#80C34F"/><path d="M760.547 371.683C745.684 374.593 730.584 376.123 715.44 376.253 703.981 376.407 693.337 382.211 687 391.76L687 356.497C718.636 354.583 743.317 328.377 743.333 296.683L743.333 268.35C743.319 257.48 747.566 247.037 755.163 239.263 757.713 236.623 757.639 232.415 754.998 229.865 753.753 228.663 752.088 227.993 750.357 228L746.617 228C742.845 228.075 739.089 228.501 735.397 229.273 732.303 229.987 729.29 230.893 726.313 231.887 718.331 234.523 710.709 238.144 703.623 242.667 696.957 246.533 690.784 251.191 685.237 256.54 697.375 271.318 705.371 289.055 708.407 307.937 708.982 311.572 706.502 314.987 702.867 315.563 702.519 315.622 702.166 315.651 701.813 315.65 699.077 315.639 696.626 313.958 695.63 311.41 694.976 307.53 694.095 303.691 692.993 299.913 689.011 285.427 681.653 272.092 671.52 261 658.872 246.703 642.455 236.256 624.147 230.853 622.227 230.283 620.29 229.747 618.32 229.293 614.629 228.521 610.874 228.095 607.103 228.02L603.36 228.02C599.689 228.006 596.702 230.971 596.688 234.642 596.682 236.373 597.351 238.038 598.553 239.283 606.151 247.057 610.398 257.5 610.383 268.37L610.383 296.703C610.41 328.499 635.254 354.744 667 356.513L667 405C667 443.28 647.103 463.81 646.297 464.623 642.383 468.52 642.37 474.852 646.267 478.765 650.138 482.653 656.42 482.696 660.343 478.86 672.542 465.244 680.82 448.574 684.297 430.627 698.768 442.515 718.784 445.026 735.743 437.08 760.073 425.667 771.953 396 760.547 371.683Z" fill="#80C34F"/></g></svg>