<svg width="477" height="478" xmlns="http://www.w3.org/2000/svg" xmlns:xlink="http://www.w3.org/1999/xlink" overflow="hidden"><defs><clipPath id="clip0"><rect x="686" y="106" width="477" height="478"/></clipPath></defs><g clip-path="url(#clip0)" transform="translate(-686 -106)"><path d="M83.6837 129.222 96.1851 299.814 97.2881 314.85 110.674 307.894 214.521 254.022 214.521 315.436 229.059 307.908 332.906 254.037 332.906 337.964 422.344 337.964 422.344 407.527 54.6562 407.527 54.6562 299.452 67.1079 129.222ZM57.871 119.285 44.7188 299.089 44.7188 417.489 432.281 417.489 432.281 328.052 342.844 328.052 342.844 237.685 224.473 299.089 224.473 237.685 106.098 299.089 92.9156 119.285Z" fill="#80C34F" transform="matrix(1 0 0 1.0021 686 106)"/><path d="M199.649 144.054C191.001 144.079 182.644 140.927 176.167 135.195 171.91 131.223 168.87 126.122 167.402 120.487 157.588 120.417 148.158 116.669 140.973 109.983L126.639 96.3937C121.265 91.9318 114.339 89.7868 107.385 90.4313L104.96 90.6201C96.7113 90.9246 90.2211 97.7701 90.3567 106.023L90.3567 109.342 80.4192 109.342 80.4192 106.123C80.1117 92.6011 90.6772 81.3181 104.19 80.7372L106.962 80.5335C116.585 79.7241 126.128 82.8306 133.431 89.1493L147.771 102.739C154.024 108.535 162.492 111.321 170.965 110.371L175.973 109.809 176.47 114.823C176.944 119.798 179.211 124.43 182.85 127.856 192.806 136.533 207.733 136.192 217.283 127.071 218.713 125.715 219.975 124.192 221.04 122.534L223.027 119.404 226.59 120.442C237.793 123.684 249.874 120.775 258.375 112.791 269.757 102.804 270.89 85.4814 260.904 74.099 260.902 74.0975 260.901 74.0955 260.899 74.094 260.422 73.5509 259.925 73.0292 259.409 72.5288 246.887 61.6284 228.124 62.0592 216.116 73.5226 210.584 78.6185 202.083 78.6657 196.494 73.6319 186.326 64.2777 170.692 64.2584 160.501 73.5872L158.513 75.5349C152.984 80.6826 144.43 80.7283 138.847 75.6393 132.032 69.4457 123.152 66.0173 113.943 66.0247L110.386 66.0993C88.8711 65.4966 70.908 82.3809 70.1786 103.892L70.1786 109.327 60.2411 109.327 60.2411 103.757C61.2756 76.9729 83.4437 55.8796 110.247 56.1767L113.864 56.1022C125.606 56.0917 136.928 60.4687 145.609 68.375 147.319 69.9441 149.946 69.9441 151.656 68.375L153.644 66.4272C167.628 53.5318 189.156 53.4886 203.192 66.3278 204.951 67.8895 207.607 67.8701 209.343 66.2831 225.164 51.2984 249.803 50.8561 266.151 65.2645 267.016 66.0893 267.696 66.8048 268.352 67.5452 281.949 82.9881 280.484 106.522 265.078 120.159 254.951 129.604 240.891 133.587 227.315 130.857 226.344 132.065 225.294 133.208 224.17 134.275 217.57 140.586 208.78 144.091 199.649 144.054Z" fill="#80C34F" transform="matrix(1 0 0 1.0021 686 106)"/><path d="M122.465 357.253 122.465 376.845 89.7307 376.845 89.7307 357.253ZM79.7932 347.316 79.7932 386.782 132.402 386.782 132.402 347.316Z" fill="#80C34F" transform="matrix(1 0 0 1.0021 686 106)"/><path d="M210.178 357.253 210.178 376.845 177.419 376.845 177.419 357.253ZM167.507 347.316 167.507 386.782 220.116 386.782 220.116 347.316Z" fill="#80C34F" transform="matrix(1 0 0 1.0021 686 106)"/><path d="M297.842 357.253 297.842 376.845 265.103 376.845 265.103 357.253ZM255.165 347.316 255.165 386.782 307.779 386.782 307.779 347.316Z" fill="#80C34F" transform="matrix(1 0 0 1.0021 686 106)"/></g></svg>