<svg width="477" height="478" xmlns="http://www.w3.org/2000/svg" xmlns:xlink="http://www.w3.org/1999/xlink" overflow="hidden"><defs><clipPath id="clip0"><rect x="686" y="106" width="477" height="478"/></clipPath></defs><g clip-path="url(#clip0)" transform="translate(-686 -106)"><path d="M149.062 96.8906 74.5312 142.106 238.5 241.481 313.031 196.266Z" fill="#80C34F" transform="matrix(1 0 0 1.0021 686 106)"/><path d="M402.469 142.106 238.5 42.7313 167.944 85.4625 331.913 184.838Z" fill="#80C34F" transform="matrix(1 0 0 1.0021 686 106)"/><path d="M74.5312 181.856 74.5312 340.856 228.562 434.269 228.562 258.872 74.5312 165.459Z" fill="#80C34F" transform="matrix(1 0 0 1.0021 686 106)"/><path d="M303.094 286.2 268.312 306.075 268.312 271.294 303.094 251.419 303.094 286.2ZM248.438 258.872 248.438 434.269 402.469 340.856 402.469 165.459 248.438 258.872Z" fill="#80C34F" transform="matrix(1 0 0 1.0021 686 106)"/></g></svg>