<svg width="230" height="231" xmlns="http://www.w3.org/2000/svg" xmlns:xlink="http://www.w3.org/1999/xlink" overflow="hidden"><defs><clipPath id="clip0"><rect x="902" y="353" width="230" height="231"/></clipPath></defs><g clip-path="url(#clip0)" transform="translate(-902 -353)"><path d="M172.608 56.2877C179.195 56.425 185.683 57.919 191.667 60.6769 190.162 48.2315 180.414 38.3882 167.984 36.7617 170.888 42.8703 172.464 49.5252 172.608 56.2877Z" fill="#D64A3B" transform="matrix(1 0 0 1.00435 902 353)"/><path d="M140.463 92.9032C150.823 103.263 167.619 103.263 177.979 92.9032L186.844 84.0386C190.237 80.6358 194.83 78.6998 199.635 78.6456 201.257 78.6224 202.553 77.2884 202.53 75.6664 202.519 74.8935 202.204 74.1563 201.652 73.6144L200.481 72.4452C199.279 71.2878 197.972 70.2451 196.576 69.3306 195.378 68.5879 194.161 67.9291 192.92 67.3085 189.602 65.636 186.089 64.3828 182.462 63.5782 179.169 62.7047 175.782 62.2318 172.375 62.1695 171.55 70.5841 168.505 78.6289 163.552 85.4809 162.595 86.7979 160.753 87.0905 159.436 86.1345 159.435 86.1338 159.434 86.1333 159.433 86.1326 159.307 86.0418 159.188 85.9407 159.079 85.8307 158.226 84.9728 157.984 83.6805 158.47 82.5724 159.479 81.1608 160.403 79.6912 161.24 78.1712 164.525 72.3982 166.394 65.9278 166.692 59.2921 167.209 50.8688 165.343 42.4707 161.309 35.0582 160.887 34.2796 160.447 33.5057 159.975 32.7486 159.06 31.3528 158.017 30.0454 156.86 28.8434L155.693 27.6719C154.556 26.5152 152.696 26.4996 151.539 27.6371 150.988 28.1791 150.673 28.9163 150.662 29.6892 150.607 34.4947 148.67 39.0871 145.267 42.4805L136.402 51.3451C126.043 61.7044 126.043 78.4997 136.402 88.8591Z" fill="#D64A3B" transform="matrix(1 0 0 1.00435 902 353)"/><path d="M199.894 123.56C202.97 126.767 205.351 130.573 206.89 134.742 212.106 128.09 212.152 118.749 207.002 112.046 205.473 116.343 203.05 120.267 199.894 123.56Z" fill="#D64A3B" transform="matrix(1 0 0 1.00435 902 353)"/><path d="M167.107 125.69C167.107 135.569 175.115 143.578 184.994 143.58L193.442 143.58C196.682 143.574 199.795 144.84 202.112 147.104 202.901 147.862 204.156 147.837 204.914 147.048 205.271 146.677 205.469 146.182 205.467 145.667L205.467 144.55C205.446 143.423 205.319 142.3 205.088 141.196 204.875 140.274 204.609 139.375 204.309 138.489 203.524 136.109 202.446 133.836 201.099 131.723 199.946 129.743 198.558 127.909 196.966 126.26 192.558 129.882 187.266 132.266 181.633 133.168 180.551 133.341 179.534 132.605 179.36 131.523 179.36 131.521 179.359 131.519 179.359 131.517 179.207 130.595 179.725 129.693 180.598 129.361 181.755 129.165 182.9 128.902 184.026 128.572 188.346 127.387 192.321 125.193 195.627 122.171 199.893 118.403 203.011 113.51 204.626 108.052 204.796 107.479 204.954 106.902 205.09 106.315 205.321 105.211 205.448 104.088 205.469 102.961L205.469 101.847C205.474 100.753 204.591 99.8617 203.497 99.8567 202.982 99.8545 202.486 100.053 202.115 100.409 199.798 102.675 196.685 103.941 193.444 103.936L184.994 103.936C175.115 103.937 167.107 111.947 167.107 121.826Z" fill="#D64A3B" transform="matrix(1 0 0 1.00435 902 353)"/><path d="M58.9854 147.296 18.4982 174.232 55.7678 211.502 82.7042 171.015 58.9854 147.296Z" fill="#D64A3B" transform="matrix(1 0 0 1.00435 902 353)"/><path d="M89.4796 164.237 164.709 149.994C150.448 110.484 119.345 79.3692 79.8411 65.0924L65.7632 140.52Z" fill="#D64A3B" transform="matrix(1 0 0 1.00435 902 353)"/><path d="M106.44 30.106C103.233 27.0303 99.4268 24.6486 95.2583 23.1102 101.911 17.8949 111.251 17.8495 117.954 23 113.657 24.5288 109.733 26.9507 106.44 30.106Z" fill="#D64A3B" transform="matrix(1 0 0 1.00435 902 353)"/><path d="M104.31 62.893C94.4306 62.893 86.4215 54.8849 86.4201 45.0057L86.4201 36.558C86.4256 33.3179 85.1601 30.205 82.8958 27.8875 82.1376 27.0986 82.1627 25.8441 82.9517 25.0861 83.323 24.7293 83.8185 24.5309 84.3333 24.5333L85.4498 24.5333C86.5773 24.5544 87.7002 24.6812 88.804 24.9119 89.7263 25.1251 90.6248 25.391 91.5112 25.6905 93.891 26.4756 96.1637 27.554 98.2771 28.9009 100.257 30.0541 102.091 31.4417 103.74 33.0337 100.118 37.4418 97.7344 42.734 96.8324 48.3671 96.6589 49.4488 97.3954 50.4663 98.4771 50.6398 98.479 50.64 98.4812 50.6405 98.4831 50.6407 99.405 50.7931 100.307 50.2751 100.639 49.4021 100.835 48.2449 101.098 47.1002 101.428 45.9736 102.613 41.6544 104.807 37.6786 107.829 34.373 111.597 30.1072 116.49 26.9886 121.948 25.3743 122.521 25.2042 123.098 25.046 123.685 24.9095 124.789 24.6788 125.912 24.552 127.039 24.5309L128.156 24.5309C129.25 24.5261 130.141 25.4093 130.146 26.5034 130.148 27.0183 129.95 27.5138 129.593 27.8851 127.328 30.2021 126.062 33.3153 126.066 36.5556L126.066 45.0033C126.065 54.8825 118.056 62.8906 108.177 62.8906Z" fill="#D64A3B" transform="matrix(1 0 0 1.00435 902 353)"/></g></svg>