<svg width="230" height="230" xmlns="http://www.w3.org/2000/svg" xmlns:xlink="http://www.w3.org/1999/xlink" overflow="hidden"><defs><clipPath id="clip0"><rect x="902" y="106" width="230" height="230"/></clipPath></defs><g clip-path="url(#clip0)" transform="translate(-902 -106)"><path d="M1101.81 234.896C1078.81 241.365 1040.72 255.74 1026.82 280.656 1026.58 280.896 1026.58 281.375 1026.34 281.615L1026.34 232.74C1102.05 225.552 1061.8 132.354 1061.8 132.354 1059.89 129.24 1055.33 129.24 1053.66 132.354L1037.36 159.906 1021.07 132.354C1020.11 130.677 1018.44 129.958 1017 129.958 1015.56 129.958 1013.89 130.677 1012.93 132.354L996.635 159.906 980.344 132.354C978.427 129.24 973.875 129.24 972.198 132.354 972.198 132.354 931.948 225.552 1007.42 232.74L1007.42 281.375C1007.42 281.135 1007.18 281.135 1007.18 280.896 993.281 255.74 955.427 241.604 932.188 235.135 927.396 233.698 924.042 239.448 927.396 243.042 937.458 253.583 949.917 270.833 954.708 294.073 954.708 294.073 954.708 294.073 954.708 294.073 956.385 304.135 965.729 312.042 976.271 312.042L1057.73 312.042C1068.27 312.042 1077.61 304.135 1079.29 294.073 1079.29 294.073 1079.29 294.073 1079.29 294.073 1084.08 270.833 1096.54 253.583 1106.6 243.042 1109.96 239.208 1106.6 233.698 1101.81 234.896Z" fill="#E29D3E"/></g></svg>